# xmcd
#
# Track frame offsets: 
#        150
#        27431
#        50856
#        76456
#        99382
#        121860
#        145494
#        171048
#        193506
#        220751
#
# Disc length: 3251 seconds
#
# Revision: 3
# Processed by: cddbd v1.5.2PL0 Copyright (c) Steve Scherf et al.
# Submitted via: ExactAudioCopy v1.0b3
#
DISCID=8b0cb10a
DTITLE=Truong Vu, Ha Vy - Nguoi Em Xom Dao
DYEAR=1997
DGENRE=
TTITLE0=Truong Vu - Mua dem tinh le
TTITLE1=Ha Vy - Sao anh no danh quen
TTITLE2=Truong Vu - Nguoi em xom dao
TTITLE3=Ha Vy - Con nho khong anh
TTITLE4=Truong Vu - Xa nguoi yeu
TTITLE5=Truong Vu - Nguoi xa ve thanh pho
TTITLE6=Truong Vu - Buon tan thu
TTITLE7=Ha Vy - Mai anh di xa roi
TTITLE8=Truong Vu - Quan nua khuya
TTITLE9=Truong Vu - Ve dau mai toc nguoi thuong
EXTD=
EXTT0=
EXTT1=
EXTT2=
EXTT3=
EXTT4=
EXTT5=
EXTT6=
EXTT7=
EXTT8=
EXTT9=
PLAYORDER=
